<?xml version="1.0" encoding="iso-8859-1"?>
<!-- Generator: Adobe Illustrator 19.0.0, SVG Export Plug-In . SVG Version: 6.00 Build 0)  -->
<svg version="1.1" id="Capa_1" xmlns="http://www.w3.org/2000/svg" xmlns:xlink="http://www.w3.org/1999/xlink" x="0px" y="0px"
	 viewBox="0 0 59 59" style="enable-background:new 0 0 59 59;" xml:space="preserve">
<g>
	<g>
		<path d="M53,50c-0.552,0-1,0.447-1,1s0.448,1,1,1c1.378,0,2.5,1.121,2.5,2.5S54.378,57,53,57s-2.5-1.121-2.5-2.5
			c0-0.089-0.029-0.168-0.05-0.25c0.022-0.082,0.05-0.161,0.05-0.25v-6.392c1.111-0.137,2.156-0.483,3.09-1.063
			c2.177-1.354,3.515-3.768,3.768-6.797l1.139-13.665c0.023-0.278-0.071-0.555-0.261-0.76C58.046,25.117,57.78,25,57.5,25h-9.09
			c-0.478-2.833-2.942-5-5.91-5s-5.431,2.167-5.91,5H1.5c-0.28,0-0.546,0.117-0.736,0.323c-0.19,0.205-0.284,0.481-0.261,0.76
			l1.139,13.665c0.258,3.093,1.639,5.547,3.889,6.907c0.617,0.374,1.278,0.647,1.969,0.827V54c0,0.089,0.029,0.168,0.05,0.25
			C7.529,54.332,7.5,54.411,7.5,54.5C7.5,55.879,6.378,57,5,57s-2.5-1.121-2.5-2.5S3.622,52,5,52c0.552,0,1-0.447,1-1s-0.448-1-1-1
			c-2.481,0-4.5,2.019-4.5,4.5S2.519,59,5,59s4.5-2.019,4.5-4.5c0-0.089-0.029-0.168-0.05-0.25C9.471,54.168,9.5,54.089,9.5,54
			v-6.26c0.003,0,0.006,0,0.009,0c1.259,0,2.582-0.28,3.913-0.843c0.052-0.021,0.106-0.05,0.153-0.081
			c0.053-0.033,5.381-3.376,15.925-3.376c10.544,0,15.856,3.337,15.907,3.369c0.056,0.037,0.116,0.067,0.179,0.093
			c0.989,0.389,1.966,0.62,2.915,0.719V54c0,0.089,0.029,0.168,0.05,0.25c-0.022,0.082-0.05,0.161-0.05,0.25
			c0,2.481,2.019,4.5,4.5,4.5s4.5-2.019,4.5-4.5S55.481,50,53,50z M42.5,22c1.858,0,3.411,1.279,3.858,3h-7.716
			C39.089,23.279,40.642,22,42.5,22z M29.5,41.44c-10.593,0-16.164,3.176-16.928,3.645c-2.214,0.914-4.344,0.865-6.005-0.141
			c-1.687-1.021-2.728-2.925-2.931-5.362L2.587,27h53.826l-1.048,12.582c-0.199,2.384-1.204,4.253-2.831,5.265
			c-1.658,1.03-3.833,1.11-6.132,0.228C45.597,44.581,40.041,41.44,29.5,41.44z"/>
		<path d="M32.5,20c2.206,0,4-1.794,4-4s-1.794-4-4-4s-4,1.794-4,4S30.294,20,32.5,20z M32.5,14c1.103,0,2,0.898,2,2s-0.897,2-2,2
			c-1.103,0-2-0.897-2-2S31.397,14,32.5,14z"/>
		<path d="M16.5,17c3.309,0,6-2.691,6-6s-2.691-6-6-6s-6,2.691-6,6S13.191,17,16.5,17z M16.5,7c2.206,0,4,1.794,4,4s-1.794,4-4,4
			s-4-1.794-4-4S14.294,7,16.5,7z"/>
		<path d="M14.5,12c0.552,0,1-0.447,1-1c0-0.552,0.449-1,1-1c0.552,0,1-0.447,1-1s-0.448-1-1-1c-1.654,0-3,1.346-3,3
			C13.5,11.553,13.948,12,14.5,12z"/>
		<path d="M31.5,6c1.654,0,3-1.346,3-3s-1.346-3-3-3c-1.654,0-3,1.346-3,3S29.846,6,31.5,6z M31.5,2c0.551,0,1,0.448,1,1
			s-0.449,1-1,1c-0.551,0-1-0.448-1-1S30.949,2,31.5,2z"/>
	</g>
</g>
</svg>
