<?xml version="1.0" encoding="iso-8859-1"?>
<!-- Generator: Adobe Illustrator 19.0.0, SVG Export Plug-In . SVG Version: 6.00 Build 0)  -->
<svg version="1.1" id="Capa_1" xmlns="http://www.w3.org/2000/svg" xmlns:xlink="http://www.w3.org/1999/xlink" x="0px" y="0px"
	 viewBox="0 0 58 58" style="enable-background:new 0 0 58 58;" xml:space="preserve">
<g>
	<path d="M40.995,22.023C40.995,22.015,41,22.008,41,22c0-5.512-3.737-10.271-9-11.622V9c1.247-0.938,2-2.421,2-4
		c0-2.757-2.243-5-5-5s-5,2.243-5,5c0,1.579,0.753,3.063,2,4v1.378c-5.263,1.351-9,6.11-9,11.622c0,0.008,0.004,0.015,0.005,0.023
		C15.795,22.936,15,24.371,15,25.998v27.004C15,55.758,17.246,58,20.005,58h17.989C40.754,58,43,55.758,43,53.002V25.998
		C43,24.371,42.205,22.936,40.995,22.023z M19.049,21c0.438-4.39,3.722-8.025,8.131-8.835C27.655,12.078,28,11.664,28,11.182V8.465
		c0-0.357-0.19-0.687-0.5-0.865C26.575,7.064,26,6.068,26,5c0-1.654,1.346-3,3-3s3,1.346,3,3c0,1.068-0.575,2.064-1.5,2.6
		C30.19,7.778,30,8.107,30,8.465v2.717c0,0.482,0.345,0.896,0.819,0.983c4.409,0.81,7.694,4.445,8.131,8.835h-0.956H20.005H19.049z
		 M41,53.002C41,54.655,39.652,56,37.995,56H20.005C18.348,56,17,54.655,17,53.002V53h5v-2h-5v-3h8v-2h-8v-3h5v-2h-5v-3h8v-2h-8v-3
		h5v-2h-5v-3h8v-2h-8v-0.002C17,24.345,18.348,23,20.005,23h17.989C39.652,23,41,24.345,41,25.998V53.002z"/>
</g>
</svg>
