<?xml version="1.0" encoding="iso-8859-1"?>
<!-- Generator: Adobe Illustrator 19.0.0, SVG Export Plug-In . SVG Version: 6.00 Build 0)  -->
<svg version="1.1" id="Capa_1" xmlns="http://www.w3.org/2000/svg" xmlns:xlink="http://www.w3.org/1999/xlink" x="0px" y="0px"
	 viewBox="0 0 52 52" style="enable-background:new 0 0 52 52;" xml:space="preserve">
<g>
	<path d="M49.009,5.5H2.991C1.342,5.5,0,6.847,0,8.501V12.5v12v2.999C0,29.153,1.342,30.5,2.991,30.5h0.418L17.88,46.179
		c0.189,0.205,0.455,0.321,0.735,0.321h14.77c0.279,0,0.545-0.116,0.735-0.321L48.592,30.5h0.417c1.649,0,2.991-1.347,2.991-3.001
		V24.5v-12V8.501C52,6.847,50.658,5.5,49.009,5.5z M15,16.5h3v4h-3V16.5z M13,15.5v6v2H2v-10h11V15.5z M6.797,31.222
		c3.243-2.928,8.265-2.729,11.255,0.478c1.463,1.569,2.228,3.614,2.153,5.758c-0.074,2.129-0.969,4.102-2.518,5.562L6.797,31.222z
		 M34.486,42.832c-3.024-3.042-3.132-7.968-0.183-11.132c2.931-3.142,7.808-3.394,11.055-0.647L34.486,42.832z M49.009,28.5h-0.855
		c-0.279,0-0.545,0.116-0.735,0.321l-0.704,0.763c-4.054-3.492-10.193-3.196-13.874,0.753c-3.704,3.972-3.548,10.17,0.289,13.965
		L32.947,44.5H19.053l-0.009-0.009c1.944-1.826,3.066-4.296,3.16-6.962c0.093-2.679-0.862-5.232-2.689-7.191
		c-3.741-4.012-10.024-4.257-14.074-0.584l-0.86-0.931C4.392,28.616,4.126,28.5,3.846,28.5H2.991C2.444,28.5,2,28.051,2,27.499V25.5
		h12c0.552,0,1-0.447,1-1v-2h4c0.552,0,1-0.447,1-1v-6c0-0.553-0.448-1-1-1h-4v-2c0-0.553-0.448-1-1-1H2V8.501
		C2,7.949,2.444,7.5,2.991,7.5h46.019C49.556,7.5,50,7.949,50,8.501V11.5H38c-0.552,0-1,0.447-1,1v2h-4c-0.552,0-1,0.447-1,1v6
		c0,0.553,0.448,1,1,1h4v2c0,0.553,0.448,1,1,1h12v1.999C50,28.051,49.556,28.5,49.009,28.5z M50,23.5H39v-2v-6v-2h11V23.5z
		 M37,20.5h-3v-4h3V20.5z"/>
</g>
</svg>