<?xml version="1.0" encoding="iso-8859-1"?>
<!-- Generator: Adobe Illustrator 19.0.0, SVG Export Plug-In . SVG Version: 6.00 Build 0)  -->
<svg version="1.1" id="Capa_1" xmlns="http://www.w3.org/2000/svg" xmlns:xlink="http://www.w3.org/1999/xlink" x="0px" y="0px"
	 viewBox="0 0 54 54" style="enable-background:new 0 0 54 54;" xml:space="preserve">
<g>
	<g>
		<path d="M50,8c-2.206,0-4,1.794-4,4v7h-3h-2h-3h-2h-3h-2h-3h-2h-3h-2h-3h-2h-3h-2H8v-7c0-2.206-1.794-4-4-4s-4,1.794-4,4
			c0,0.553,0.448,1,1,1s1-0.447,1-1c0-1.102,0.897-2,2-2s2,0.898,2,2v8v1v20.471c0,2.315,1.754,4.208,4,4.475V52
			c0,0.553,0.448,1,1,1h5c0.552,0,1-0.447,1-1v-6h1h3h2h3h2h3h2h3h1v6c0,0.553,0.448,1,1,1h5c0.552,0,1-0.447,1-1v-6.054
			c2.246-0.267,4-2.16,4-4.475V21v-1v-8c0-1.102,0.897-2,2-2s2,0.898,2,2c0,0.553,0.448,1,1,1s1-0.447,1-1C54,9.794,52.206,8,50,8z
			 M41,21v23h-3V21H41z M16,21v23h-3V21H16z M8,41.471V21h3v23h-0.468C9.136,44,8,42.865,8,41.471z M15,51h-3v-5h1h2V51z M18,44V21
			h3v23H18z M23,44V21h3v23H23z M28,44V21h3v23H28z M33,44V21h3v23H33z M42,51h-3v-5h2h1V51z M46,41.471
			C46,42.865,44.864,44,43.468,44H43V21h3V41.471z"/>
		<path d="M28,8h1.948l-2.726,3.371c-0.242,0.3-0.291,0.712-0.125,1.06S27.615,13,28,13h4.042c0.552,0,1-0.447,1-1s-0.448-1-1-1
			h-1.948l2.726-3.371c0.242-0.3,0.291-0.712,0.125-1.06S32.428,6,32.042,6H28c-0.552,0-1,0.447-1,1S27.448,8,28,8z"/>
		<path d="M16,3h1.948l-2.726,3.371c-0.242,0.3-0.291,0.712-0.124,1.06S15.615,8,16,8h4.042c0.552,0,1-0.447,1-1s-0.448-1-1-1
			h-1.948l2.726-3.371c0.242-0.3,0.291-0.712,0.125-1.06S20.428,1,20.042,1H16c-0.552,0-1,0.447-1,1S15.448,3,16,3z"/>
	</g>
</g>
</svg>
